<svg width="69" height="80" viewBox="0 0 69 80" fill="none" xmlns="http://www.w3.org/2000/svg">
<path d="M44.9709 4.89252C45.2908 4.79556 45.588 4.63543 45.8449 4.42159C46.1019 4.20775 46.3133 3.94456 46.4668 3.64758C46.6202 3.35059 46.7126 3.02585 46.7383 2.69256C46.764 2.35928 46.7227 2.02421 46.6167 1.70718C46.5107 1.39015 46.3422 1.0976 46.1211 0.846841C45.9001 0.596078 45.631 0.392194 45.3297 0.247246C45.0285 0.102299 44.7013 0.0192331 44.3674 0.00296303C44.0335 -0.013307 43.6998 0.0375489 43.3859 0.152522C38.7009 1.71252 35.7759 5.56252 34.0559 9.68752C33.8238 10.2447 33.612 10.81 33.4209 11.3825C32.4841 9.60829 31.2857 7.98512 29.8659 6.56752C27.9423 4.64395 25.6465 3.13302 23.1189 2.12716C20.5914 1.12129 17.8852 0.641632 15.1659 0.717522C12.2659 0.797522 9.95087 3.11752 9.87087 6.01252C9.79498 8.73182 10.2746 11.438 11.2805 13.9656C12.2864 16.4931 13.7973 18.7889 15.7209 20.7125L15.8759 20.8625C11.6751 21.7708 7.87872 24.0082 5.0491 27.243C2.21947 30.4779 0.507169 34.5383 0.16587 38.8225L0.13587 39.1925C-0.524221 47.4285 1.23069 55.6783 5.18587 62.9325L6.98587 66.2225C7.03254 66.3092 7.08587 66.3925 7.14587 66.4725L12.1459 73.4825C13.2791 75.0696 14.7445 76.3907 16.44 77.3539C18.1356 78.3172 20.0207 78.8995 21.9642 79.0604C23.9076 79.2212 25.8628 78.9567 27.6937 78.2853C29.5245 77.6139 31.1872 76.5517 32.5659 75.1725C32.7776 74.9607 33.029 74.7927 33.3057 74.6781C33.5823 74.5634 33.8789 74.5044 34.1784 74.5044C34.4779 74.5044 34.7744 74.5634 35.0511 74.6781C35.3278 74.7927 35.5791 74.9607 35.7909 75.1725C37.1696 76.5517 38.8322 77.6139 40.6631 78.2853C42.4939 78.9567 44.4491 79.2212 46.3926 79.0604C48.336 78.8995 50.2211 78.3172 51.9167 77.3539C53.6123 76.3907 55.0776 75.0696 56.2109 73.4825L61.2109 66.4775L61.3709 66.2225L63.1659 62.9325C67.1211 55.6783 68.876 47.4285 68.2159 39.1925L68.1909 38.8225C67.9696 36.0614 67.1772 33.3764 65.8639 30.9376C64.5506 28.4988 62.745 26.3594 60.5615 24.655C58.3781 22.9505 55.8644 21.7182 53.1798 21.0361C50.4952 20.354 47.6981 20.237 44.9659 20.6925L36.6809 22.0725C36.7309 18.6675 37.3309 14.8375 38.6759 11.6075C40.0759 8.23252 42.1559 5.83252 44.9659 4.89252M18.7159 34.8925C17.9483 35.1352 17.2363 35.5275 16.621 36.0467C16.0057 36.5658 15.4993 37.2017 15.1309 37.9175C14.2059 39.6575 13.5709 42.5275 14.1559 47.2125C14.2215 47.862 14.0305 48.5114 13.6236 49.0219C13.2168 49.5324 12.6264 49.8635 11.9786 49.9445C11.3309 50.0255 10.6771 49.8499 10.1571 49.4552C9.63715 49.0606 9.29215 48.4782 9.19587 47.8325C8.53087 42.5125 9.14587 38.5075 10.7209 35.5625C12.3209 32.5625 14.7559 30.9425 17.1359 30.1475C17.7651 29.938 18.4518 29.987 19.0449 30.2838C19.638 30.5806 20.0889 31.1008 20.2984 31.73C20.5079 32.3592 20.4589 33.0459 20.1621 33.639C19.8653 34.2321 19.3451 34.683 18.7159 34.8925Z" fill="white"/>
</svg>
