<svg width="80" height="80" viewBox="0 0 80 80" fill="none" xmlns="http://www.w3.org/2000/svg">
<path d="M79.261 4.27139C79.7305 3.80262 79.9944 3.16657 79.9949 2.50316C79.9954 1.83975 79.7323 1.20332 79.2635 0.733891C78.7947 0.264458 78.1587 0.000469466 77.4953 6.25556e-07C76.8319 -0.000468215 76.1954 0.26262 75.726 0.73139L59.996 16.4614V2.50139C59.996 1.83835 59.7326 1.20247 59.2638 0.733624C58.7949 0.264783 58.1591 0.00139061 57.496 0.00139061C56.833 0.00139061 56.1971 0.264783 55.7282 0.733624C55.2594 1.20247 54.996 1.83835 54.996 2.50139V16.8814C47.101 12.9614 37.056 15.1914 31.796 22.9164L1.36601 67.6464C-0.773995 70.7964 -0.363994 74.9964 2.34601 77.6814C5.09601 80.4014 9.42101 80.7764 12.611 78.5714L57.261 47.6514C60.8044 45.2169 63.3501 41.5855 64.4303 37.4243C65.5106 33.2632 65.0528 28.852 63.141 25.0014H77.491C78.1541 25.0014 78.7899 24.738 79.2588 24.2692C79.7276 23.8003 79.991 23.1644 79.991 22.5014C79.991 21.8383 79.7276 21.2025 79.2588 20.7336C78.7899 20.2648 78.1541 20.0014 77.491 20.0014H63.526L79.261 4.27139Z" fill="white"/>
</svg>
