<svg width="79" height="77" viewBox="0 0 79 77" fill="none" xmlns="http://www.w3.org/2000/svg">
<path d="M59.2507 5.15858C65.2085 8.51138 70.1645 13.3226 73.6282 19.116C77.0919 24.9094 78.9431 31.484 78.9987 38.189C79.0543 44.8941 77.3122 51.497 73.945 57.3442C70.5778 63.1913 65.7021 68.0799 59.8007 71.5261C53.8994 74.9723 47.1769 76.8564 40.2988 76.9921C33.4207 77.1278 26.6255 75.5103 20.5859 72.2997C14.5463 69.0891 9.47171 64.3967 5.86451 58.6871C2.2573 52.9775 0.24257 46.4487 0.0197507 39.747L0 38.4996L0.0197507 37.2522C0.240966 30.6032 2.22604 24.1235 5.78145 18.4449C9.33685 12.7663 14.3413 8.08247 20.3068 4.85013C26.2723 1.61779 32.9953 -0.0527865 39.8205 0.00127145C46.6456 0.0553294 53.3399 1.83218 59.2507 5.15858ZM39.5005 15.3996C38.533 15.3997 37.5992 15.7459 36.8762 16.3725C36.1532 16.9992 35.6913 17.8626 35.5781 18.7991L35.5504 19.2496V38.4996L35.586 39.0039C35.6761 39.6719 35.9444 40.3051 36.3641 40.8404L36.7078 41.2254L48.5579 52.7754L48.9293 53.0911C49.622 53.6149 50.4738 53.8993 51.3506 53.8993C52.2274 53.8993 53.0793 53.6149 53.772 53.0911L54.1433 52.7715L54.4712 52.4096C55.0086 51.7344 55.3004 50.9041 55.3004 50.0496C55.3004 49.195 55.0086 48.3647 54.4712 47.6895L54.1433 47.3276L43.4505 36.9018V19.2496L43.4229 18.7991C43.3097 17.8626 42.8478 16.9992 42.1248 16.3725C41.4018 15.7459 40.468 15.3997 39.5005 15.3996Z" fill="white"/>
</svg>
