<svg width="32" height="34" viewBox="0 0 32 34" fill="none" xmlns="http://www.w3.org/2000/svg">
<path d="M21.875 6.25C21.875 7.9076 21.2165 9.49732 20.0444 10.6694C18.8723 11.8415 17.2826 12.5 15.625 12.5C13.9674 12.5 12.3777 11.8415 11.2056 10.6694C10.0335 9.49732 9.375 7.9076 9.375 6.25C9.375 4.5924 10.0335 3.00269 11.2056 1.83058C12.3777 0.658481 13.9674 0 15.625 0C17.2826 0 18.8723 0.658481 20.0444 1.83058C21.2165 3.00269 21.875 4.5924 21.875 6.25ZM31.25 33.3333C30.2604 13.8896 0.989583 13.8896 0 33.3333H31.25Z" fill="#FF0000"/>
</svg>
