<svg width="43" height="14" viewBox="0 0 43 14" fill="none" xmlns="http://www.w3.org/2000/svg">
<path d="M22.2386 4.45758C22.214 6.40004 23.9624 7.48394 25.2795 8.12845C26.6326 8.78965 27.0871 9.2137 27.0818 9.80508C27.0717 10.71 26.0024 11.1094 25.0018 11.125C23.2561 11.1521 22.2411 10.6517 21.4342 10.2731L20.8053 13.2282C21.6149 13.6028 23.114 13.9295 24.6686 13.9438C28.3177 13.9438 30.705 12.135 30.718 9.33043C30.7322 5.77105 25.8153 5.57404 25.8489 3.9831C25.8605 3.50069 26.3189 2.9859 27.3233 2.855C27.8205 2.78888 29.193 2.73828 30.749 3.45785L31.3598 0.598811C30.5229 0.292835 29.4474 -0.000152588 28.1084 -0.000152588C24.6738 -0.000152588 22.258 1.83334 22.2386 4.45758ZM37.2283 0.246112C36.5619 0.246112 36.0004 0.636425 35.7498 1.23539L30.5372 13.7338H34.1837L34.9093 11.72H39.3652L39.7861 13.7338H43L40.1954 0.246112H37.2283ZM37.7384 3.88965L38.7907 8.95445H35.9087L37.7384 3.88965ZM17.8175 0.246281L14.9432 13.7337H18.4179L21.2909 0.245943L17.8175 0.246281ZM12.6771 0.246281L9.0604 9.4264L7.59739 1.62064C7.42573 0.749269 6.74781 0.246112 5.99497 0.246112H0.0828086L0 0.637774C1.21374 0.902256 2.59277 1.32883 3.42824 1.78527C3.93954 2.06409 4.08534 2.30782 4.2533 2.97038L7.02429 13.7338H10.6962L16.3259 0.246112L12.6771 0.246281Z" fill="url(#paint0_linear_333_94)"/>
<defs>
<linearGradient id="paint0_linear_333_94" x1="1976.88" y1="41.9155" x2="2017.41" y2="-1390.14" gradientUnits="userSpaceOnUse">
<stop stop-color="#222357"/>
<stop offset="1" stop-color="#254AA5"/>
</linearGradient>
</defs>
</svg>
